<svg width="28" height="29" viewBox="0 0 28 29" fill="none" xmlns="http://www.w3.org/2000/svg">
<g id="gg:close-o">
<g id="Group">
<path id="Vector" d="M19.0633 11.3757C19.1754 11.2712 19.2658 11.1456 19.3294 11.0062C19.3929 10.8668 19.4284 10.7162 19.4338 10.5631C19.4391 10.41 19.4143 10.2573 19.3606 10.1137C19.307 9.97021 19.2256 9.83865 19.1211 9.72658C19.0166 9.61451 18.8911 9.52411 18.7516 9.46056C18.6122 9.397 18.4616 9.36153 18.3085 9.35617C18.1554 9.35081 18.0027 9.37566 17.8592 9.4293C17.7156 9.48295 17.5841 9.56434 17.472 9.66883L14.0583 12.8515L10.8757 9.43666C10.6627 9.21855 10.3729 9.09245 10.0681 9.08534C9.76335 9.07823 9.46793 9.19069 9.24503 9.39864C9.02214 9.60659 8.88949 9.89352 8.87547 10.198C8.86145 10.5025 8.96717 10.8004 9.17001 11.028L12.3527 14.4417L8.93784 17.6243C8.82181 17.7278 8.72762 17.8533 8.6608 17.9937C8.59397 18.134 8.55587 18.2863 8.54872 18.4416C8.54157 18.5968 8.56552 18.752 8.61916 18.8979C8.67281 19.0437 8.75506 19.1774 8.8611 19.2911C8.96713 19.4047 9.09481 19.4961 9.23663 19.5597C9.37845 19.6233 9.53156 19.658 9.68695 19.6616C9.84235 19.6652 9.9969 19.6377 10.1415 19.5808C10.2862 19.5239 10.418 19.4386 10.5292 19.33L13.9428 16.1485L17.1255 19.5622C17.2283 19.6803 17.3538 19.7766 17.4945 19.8452C17.6353 19.9139 17.7885 19.9535 17.9448 19.9617C18.1012 19.9699 18.2577 19.9465 18.4048 19.8929C18.552 19.8394 18.6869 19.7567 18.8014 19.6499C18.916 19.5432 19.0078 19.4144 19.0716 19.2713C19.1353 19.1283 19.1696 18.9739 19.1723 18.8173C19.1751 18.6607 19.1463 18.5052 19.0877 18.3599C19.0291 18.2147 18.9419 18.0828 18.8312 17.972L15.6497 14.5583L19.0633 11.3757Z" fill="#F24E1E"/>
<path id="Vector_2" fill-rule="evenodd" clip-rule="evenodd" d="M1.16663 14.5C1.16663 7.41249 6.91246 1.66666 14 1.66666C21.0875 1.66666 26.8333 7.41249 26.8333 14.5C26.8333 21.5875 21.0875 27.3333 14 27.3333C6.91246 27.3333 1.16663 21.5875 1.16663 14.5ZM14 25C12.6211 25 11.2557 24.7284 9.98178 24.2007C8.70786 23.673 7.55035 22.8996 6.57534 21.9246C5.60032 20.9496 4.8269 19.7921 4.29922 18.5182C3.77155 17.2442 3.49996 15.8789 3.49996 14.5C3.49996 13.1211 3.77155 11.7557 4.29922 10.4818C4.8269 9.20789 5.60032 8.05038 6.57534 7.07537C7.55035 6.10035 8.70786 5.32693 9.98178 4.79925C11.2557 4.27158 12.6211 3.99999 14 3.99999C16.7847 3.99999 19.4554 5.10624 21.4246 7.07537C23.3937 9.0445 24.5 11.7152 24.5 14.5C24.5 17.2848 23.3937 19.9555 21.4246 21.9246C19.4554 23.8937 16.7847 25 14 25Z" fill="#F24E1E"/>
</g>
</g>
</svg>
